PathFileType	4	(X/Y/Z)	D:\Share\Shared_Data\Ergonomics\Sit To Stand Pertubation\S2\Unperturbed.trc
DataRate	CameraRate	NumFrames	NumMarkers	Units	OrigDataRate	OrigDataStartFrame	OrigNumFrames	
100	100	13	18	m	100	2085	251
Frame#	Time	R_Toe			R_ASIS			R_Pelvis			V_Sacral			L_Pelvis			L_ASIS			Clavical			R_Acromium			L_Acromium			Sternum			Torso			R_Thigh_Med			R_Thigh_Lat			R_Thigh			R_Shank_Med			R_Shank_Lat			R_Shank			R_Heel			
		X1	Y1	Z1	X2	Y2	Z2	X3	Y3	Z3	X4	Y4	Z4	X5	Y5	Z5	X6	Y6	Z6	X7	Y7	Z7	X8	Y8	Z8	X9	Y9	Z9	X10	Y10	Z10	X11	Y11	Z11	X12	Y12	Z12	X13	Y13	Z13	X14	Y14	Z14	X15	Y15	Z15	X16	Y16	Z16	X17	Y17	Z17	X18	Y18	Z18	

2085	20.84	0.4427424	0.073700378	0.14403802	0.17486423	0.76692151	0.14302481	0.11046345	0.81167145	0.1830656	-0.03583897	0.82117194	0.023477566	0.084384361	0.81895312	-0.15255316	0.17104433	0.77355347	-0.12455807	0.444707	1.0405084	-0.00031729832	0.39238586	1.1211252	0.20404126	0.38642416	1.1318164	-0.18490433	0.38763101	0.88958923	0.0019017938	0.42865347	1.0078693	-0.11165836	0.4595564	0.47583795	0.11370125	0.43649295	0.49069193	0.21583138	0.34142416	0.665047	0.17490335	0.31084357	0.10895866	0.10417699	0.28711612	0.098218483	0.1967933	0.39131842	0.34370193	0.22960822	0.20560678	0.058101318	0.13989825
2086	20.85	0.4427077	0.073710632	0.14404547	0.17789737	0.77282843	0.14306812	0.11363252	0.81752899	0.18308417	-0.032597065	0.82803424	0.023403666	0.087317215	0.8251098	-0.15269237	0.17402914	0.77985559	-0.12438012	0.44690277	1.0483083	-0.00010833818	0.39423767	1.1285656	0.20431042	0.3884205	1.1395768	-0.18468616	0.39022357	0.89721997	0.00197408	0.43102133	1.0156301	-0.11150838	0.45925061	0.47595706	0.11349448	0.43632391	0.49096588	0.21543126	0.34386316	0.66665881	0.17489116	0.3107916	0.1089867	0.10417054	0.28706677	0.098202148	0.19680373	0.3909306	0.34402448	0.22942267	0.20559439	0.058092854	0.13990552
2087	20.86	0.4426795	0.073710678	0.14405281	0.18096614	0.77868732	0.14308061	0.11681426	0.82334125	0.18310411	-0.029343164	0.83479932	0.023333797	0.090254417	0.83120483	-0.15281491	0.17706537	0.7863078	-0.12420528	0.4490209	1.0561996	0.00010575226	0.3959841	1.1360736	0.20458083	0.39030252	1.1473851	-0.1844558	0.39279236	0.90492303	0.002052942	0.43333542	1.0234688	-0.11135829	0.4589151	0.47608569	0.11326588	0.43612772	0.49125104	0.21499947	0.3462951	0.66823438	0.17486055	0.31074789	0.10900986	0.10416003	0.28702112	0.098188934	0.1968051	0.39052698	0.34435864	0.22921436	0.20558482	0.058087852	0.1399104
2088	20.87	0.44266177	0.07369606	0.14405846	0.18407147	0.78449365	0.14306079	0.12001005	0.82910205	0.18312535	-0.026076254	0.84145276	0.023269909	0.093208427	0.83722809	-0.15291695	0.18013727	0.79279626	-0.12405424	0.45105838	1.0641653	0.00032225892	0.39763138	1.1436309	0.20485089	0.39206921	1.155224	-0.18421353	0.39534314	0.91268176	0.0021322081	0.43559073	1.0313706	-0.1112141	0.45855621	0.47622217	0.11300988	0.43591098	0.49154532	0.21453229	0.34872141	0.66976837	0.17480733	0.31071408	0.10902728	0.10414586	0.28698111	0.098179901	0.19679648	0.390112	0.34470303	0.22898204	0.20557777	0.05808802	0.1399146
2089	20.88	0.44265933	0.073662201	0.1440614	0.18721071	0.7902514	0.14301335	0.12322025	0.83480585	0.1831478	-0.022794678	0.84798279	0.02321188	0.096188568	0.8431745	-0.15299724	0.18323334	0.79922461	-0.12394381	0.45301379	1.0721904	0.00053913194	0.39918558	1.1512207	0.20511908	0.39372025	1.1630779	-0.18396025	0.39788287	0.92047998	0.0022060285	0.43778201	1.0393221	-0.11108027	0.45817761	0.47636526	0.11272118	0.4356799	0.49184656	0.21402678	0.35114368	0.67125647	0.17472807	0.31069128	0.10903831	0.10412828	0.28694858	0.098175583	0.1967778	0.38968976	0.34505734	0.22872606	0.20557358	0.058094131	0.13991924
2090	20.89	0.4426777	0.073604362	0.14406113	0.19037914	0.79596722	0.1429465	0.12644419	0.84044745	0.18317212	-0.019497391	0.8543811	0.023155369	0.099200226	0.84904413	-0.15305858	0.18634822	0.80553802	-0.12388585	0.45488702	1.0802607	0.00075492531	0.40065274	1.1588271	0.20538362	0.39525616	1.1709331	-0.18369754	0.4004183	0.928302	0.0022697463	0.43990543	1.047311	-0.11095904	0.45778122	0.47651355	0.11239612	0.43544025	0.49215298	0.21348125	0.35356369	0.67269495	0.17461949	0.31068063	0.10904256	0.10410723	0.2869259	0.098176224	0.1967498	0.3892641	0.34542151	0.22844844	0.20557297	0.058106709	0.1399249
2091	20.9	0.44272223	0.073518875	0.14405698	0.19357098	0.80164655	0.14286955	0.12968044	0.84602252	0.18319984	-0.016184229	0.86064282	0.023094681	0.1022458	0.85483911	-0.1531084	0.1894823	0.81171729	-0.12388455	0.45667981	1.0883621	0.00096843064	0.40203833	1.1664362	0.20564287	0.39668042	1.1787797	-0.1834279	0.40295541	0.93613348	0.002321027	0.44195926	1.0553253	-0.11085048	0.45736765	0.47666565	0.11203406	0.43519632	0.49246301	0.21289568	0.35598257	0.67408051	0.17447766	0.31068317	0.10903976	0.10408244	0.28691537	0.098181633	0.19671352	0.38883997	0.34579538	0.22815288	0.20557672	0.058126163	0.13993155
2092	20.91	0.44279633	0.073405045	0.14404784	0.19678078	0.80729309	0.14279189	0.13292775	0.8515282	0.18323209	-0.012855021	0.86676465	0.023025751	0.10532564	0.86056097	-0.15315683	0.19264	0.81776526	-0.12393675	0.4583956	1.0964799	0.0011782714	0.40334775	1.1740345	0.20589507	0.39799988	1.1866121	-0.1831545	0.40549808	0.94396161	0.0023601973	0.44394366	1.0633534	-0.11075262	0.45693765	0.47682013	0.11163708	0.43495032	0.49277521	0.21227103	0.3583999	0.67541052	0.17429822	0.3106994	0.10902972	0.10405358	0.28691824	0.098190926	0.19667043	0.38842276	0.34617828	0.22784352	0.20558545	0.058152409	0.13993867
2093	20.92	0.44289929	0.073266441	0.14403232	0.20000464	0.8129082	0.14272182	0.13618616	0.85696265	0.18326862	-0.0095087957	0.87274579	0.022947083	0.10843865	0.86620953	-0.15321463	0.19582707	0.82369562	-0.12403476	0.46003836	1.1046002	0.0013825341	0.40458591	1.181611	0.20613858	0.39922369	1.1944258	-0.18288072	0.40804678	0.95177551	0.0023897023	0.44586014	1.0713837	-0.11066281	0.4564917	0.47697662	0.11120856	0.43470209	0.49308762	0.21160793	0.360814	0.67668268	0.17407758	0.31072855	0.1090122	0.10402043	0.2869342	0.09820266	0.19662213	0.38801703	0.34656863	0.22752324	0.20559933	0.058184071	0.1399454
2094	20.93	0.44302545	0.073110474	0.1440088	0.20324338	0.81848956	0.14266391	0.13945717	0.86232544	0.18330798	-0.006143765	0.87859003	0.022859386	0.1115834	0.87178314	-0.15329192	0.19904837	0.82952472	-0.1241692	0.46161215	1.1127097	0.0015789819	0.40575732	1.1891555	0.20637187	0.40035989	1.2022156	-0.18260927	0.41059872	0.95956659	0.0024131086	0.44771072	1.0794047	-0.11057894	0.45602945	0.47713522	0.11075168	0.4344498	0.49339865	0.21090666	0.36322232	0.67789624	0.17381416	0.31076831	0.10898723	0.10398286	0.28696115	0.098215416	0.19657011	0.38762479	0.34696442	0.22719261	0.20561836	0.058217827	0.1399501
2095	20.94	0.44316507	0.072946075	0.14397574	0.20650441	0.82402954	0.14261684	0.14274342	0.86761578	0.18334837	-0.0027576034	0.88430688	0.022765772	0.11475964	0.87727911	-0.15339693	0.20230687	0.83526807	-0.12433112	0.46312122	1.1207987	0.0017657005	0.40686667	1.1966599	0.20659378	0.40141376	1.2099727	-0.18234221	0.41314914	0.9673288	0.0024337552	0.44949774	1.0874065	-0.11049969	0.45554901	0.47729626	0.11026806	0.43419092	0.49370724	0.2101689	0.36562161	0.67905225	0.17350858	0.31081543	0.10895508	0.10394067	0.28699588	0.098227951	0.1965154	0.38724561	0.34736392	0.22685065	0.2056425	0.058248436	0.1399502
2096	20.95	0.44330765	0.072780144	0.14393224	0.20979936	0.82951733	0.14257576	0.14604834	0.87283289	0.18338786	0.00065225178	0.88990942	0.022672026	0.11796833	0.88269513	-0.15353474	0.20560316	0.8409389	-0.12451368	0.46456985	1.12886	0.0019415662	0.40791873	1.2041178	0.20680338	0.40238754	1.2176892	-0.18208141	0.41569171	0.97505823	0.0024536085	0.45122418	1.0953822	-0.11042413	0.45504681	0.47745969	0.1097579	0.43392276	0.49401361	0.20939854	0.36800848	0.68015277	0.17316319	0.31086667	0.10891632	0.10389326	0.2870354	0.098239372	0.19645856	0.3868772	0.34776584	0.22649605	0.20567212	0.058270191	0.13994266
2097	20.96	0.44344513	0.072614792	0.14387866	0.21313831	0.83494305	0.14253621	0.14937508	0.87797681	0.18342389	0.0040877457	0.89541101	0.022582796	0.12120924	0.88803021	-0.15370728	0.20893611	0.84654791	-0.12471239	0.46596329	1.1368894	0.0021064854	0.40891818	1.2115233	0.2069998	0.40328265	1.2253582	-0.18182787	0.41821887	0.98275275	0.0024726653	0.45289404	1.1033269	-0.11035183	0.45451807	0.47762543	0.10922234	0.43364145	0.49431882	0.20860126	0.37037973	0.68120093	0.17278111	0.31091956	0.10887164	0.10383977	0.28707742	0.098249451	0.19639954	0.38651562	0.3481691	0.22612755	0.20570772	0.058278755	0.13992474
